<svg width="186" height="32" viewBox="0 0 186 32" fill="none" xmlns="http://www.w3.org/2000/svg">
<path d="M181.327 5.19189H186V24.6613H181.327V16.8735H172.891V24.6613H168.218V5.19189H172.891V12.5903H181.327V5.19189Z" fill="white"/>
<path d="M163.748 20.6375H164.527V24.6612C164.202 24.7261 163.683 24.791 162.839 24.791C160.438 24.791 159.205 23.8824 158.881 21.8057C157.453 23.7526 154.922 24.9857 152.066 24.9857C148.302 24.9857 145.706 22.7142 145.706 19.2746C145.706 14.3424 150.379 13.3689 154.078 12.9146C156.609 12.5902 158.232 12.2657 158.232 10.9677C158.232 9.60486 156.804 8.69629 154.467 8.69629C152.391 8.69629 150.509 9.53996 148.951 11.0975L146.161 8.1771C148.432 6.03547 151.287 4.86731 154.727 4.86731C159.659 4.86731 162.58 7.33343 162.58 11.3571V19.4693C162.58 20.2481 162.969 20.6375 163.748 20.6375ZM153.04 21.2865C155.83 21.2865 158.102 19.4044 158.102 17.133V15.1212C157.323 15.5755 156.22 15.7702 154.597 16.0297C152.391 16.4191 150.249 16.7436 150.249 18.8853C150.249 20.3779 151.287 21.2865 153.04 21.2865Z" fill="white"/>
<path d="M135.395 4.86731C140.457 4.86731 143.767 8.82608 143.767 14.9265C143.767 20.962 140.328 24.9857 135.395 24.9857C132.799 24.9857 130.658 24.0122 129.165 22.195V31.151H124.492V5.1918H128.646L128.905 8.1122C130.398 6.03547 132.67 4.86731 135.395 4.86731ZM133.968 21.0918C137.083 21.0918 139.03 18.6906 139.03 14.9265C139.03 11.1624 137.083 8.76118 133.968 8.76118C130.852 8.76118 128.97 11.1624 128.97 14.9265C128.97 18.6906 130.852 21.0918 133.968 21.0918Z" fill="white"/>
<path d="M106.004 16.4191C106.458 19.3395 108.405 21.0918 111.456 21.0918C113.987 21.0918 115.804 20.1183 116.972 18.7555L119.892 21.5461C118.14 23.5579 115.349 24.9857 111.456 24.9857C104.771 24.9857 101.332 20.7024 101.332 14.9265C101.332 8.95588 105.225 4.86731 111.131 4.86731C116.907 4.86731 120.671 8.82608 120.671 14.9265C120.671 15.3808 120.671 15.7702 120.476 16.4191H106.004ZM111.131 8.63139C108.405 8.63139 106.588 10.2538 106.069 12.9795H115.934C115.414 10.1889 113.662 8.63139 111.131 8.63139Z" fill="white"/>
<path d="M100.561 5.19189V9.41026H93.7463V24.6613H89.0737V9.41026H82.1945V5.19189H100.561Z" fill="white"/>
<path d="M66.8214 16.4191C67.2757 19.3395 69.2226 21.0918 72.2728 21.0918C74.8038 21.0918 76.621 20.1183 77.7891 18.7555L80.7095 21.5461C78.9573 23.5579 76.1667 24.9857 72.2728 24.9857C65.5883 24.9857 62.1487 20.7024 62.1487 14.9265C62.1487 8.95588 66.0426 4.86731 71.9483 4.86731C77.7242 4.86731 81.4883 8.82608 81.4883 14.9265C81.4883 15.3808 81.4883 15.7702 81.2936 16.4191H66.8214ZM71.9483 8.63139C69.2226 8.63139 67.4055 10.2538 66.8863 12.9795H76.7508C76.2316 10.1889 74.4793 8.63139 71.9483 8.63139Z" fill="white"/>
<path d="M55.7316 12.071C58.068 13.1743 59.3659 15.1861 59.3659 17.9118C59.3659 22.0653 56.3157 24.6612 51.1888 24.6612H39.637V0H50.9941C55.9263 0 58.9116 2.53102 58.9116 6.55469C58.9116 9.02081 57.7435 10.9677 55.7316 12.071ZM50.2153 4.08857H44.4394V10.0592H50.2153C52.7463 10.0592 54.0443 9.08571 54.0443 7.07387C54.0443 5.06204 52.7463 4.08857 50.2153 4.08857ZM50.2802 20.5726C53.0708 20.5726 54.4337 19.5343 54.4337 17.3277C54.4337 15.1212 53.0708 14.0179 50.2802 14.0179H44.4394V20.5726H50.2802Z" fill="white"/>
<path d="M22.6415 15.8351V11.422H34.2583V15.8351H22.6415Z" fill="white"/>
<path d="M4.67265 16.4191C5.12693 19.3395 7.07387 21.0918 10.1241 21.0918C12.6551 21.0918 14.4722 20.1183 15.6404 18.7555L18.5608 21.5461C16.8086 23.5579 14.0179 24.9857 10.1241 24.9857C3.43959 24.9857 0 20.7024 0 14.9265C0 8.95588 3.89387 4.86731 9.79958 4.86731C15.5755 4.86731 19.3396 8.82608 19.3396 14.9265C19.3396 15.3808 19.3396 15.7702 19.1449 16.4191H4.67265ZM9.79958 8.63139C7.07387 8.63139 5.25673 10.2538 4.73755 12.9795H14.602C14.0828 10.1889 12.3306 8.63139 9.79958 8.63139Z" fill="white"/>
</svg>
