<svg width="21" height="20" viewBox="0 0 21 20" fill="none" xmlns="http://www.w3.org/2000/svg">
<g id="messenger" clip-path="url(#clip0_7_398)">
<path id="Vector" d="M17.25 0H3.25C1.59315 0 0.25 1.34315 0.25 3V17C0.25 18.6569 1.59315 20 3.25 20H17.25C18.9069 20 20.25 18.6569 20.25 17V3C20.25 1.34315 18.9069 0 17.25 0Z" fill="#37AEE2"/>
<path id="Vector_2" d="M8.02344 15.7812C7.59375 15.7812 7.63281 15.625 7.51562 15.2344L6.26562 11.1328L15.8359 5.50781" fill="#C8DAEA"/>
<path id="Vector_3" d="M8.02344 15.7812C8.29688 15.7812 8.45312 15.625 8.64844 15.4688L10.4062 13.7891L8.21875 12.4609" fill="#A9C9DD"/>
<path id="Vector_4" d="M8.21877 12.461L13.4922 16.3282C14.0391 16.6797 14.5078 16.4844 14.6641 15.7813L16.8125 5.70317C17.0078 4.8438 16.461 4.45317 15.875 4.72661L3.33596 9.57036C2.51564 9.88286 2.51564 10.3907 3.17971 10.586L6.42189 11.6016L13.8438 6.87505C14.1953 6.67974 14.5078 6.75786 14.2735 7.0313" fill="#F6FBFE"/>
</g>
<defs>
<clipPath id="clip0_7_398">
<rect width="20" height="20" fill="white" transform="translate(0.25)"/>
</clipPath>
</defs>
</svg>
