<svg width="21" height="21" viewBox="0 0 21 21" fill="none" xmlns="http://www.w3.org/2000/svg">
<g clip-path="url(#clip0_55_1761)">
<path d="M17.1428 0.166748H3.14282C1.48597 0.166748 0.142822 1.50989 0.142822 3.16675V17.1667C0.142822 18.8236 1.48597 20.1667 3.14282 20.1667H17.1428C18.7997 20.1667 20.1428 18.8236 20.1428 17.1667V3.16675C20.1428 1.50989 18.7997 0.166748 17.1428 0.166748Z" fill="#37AEE2"/>
<path d="M7.91626 15.948C7.48657 15.948 7.52563 15.7917 7.40845 15.4011L6.15845 11.2996L15.7288 5.67456" fill="#C8DAEA"/>
<path d="M7.91626 15.948C8.1897 15.948 8.34595 15.7917 8.54126 15.6355L10.2991 13.9558L8.11157 12.6277" fill="#A9C9DD"/>
<path d="M8.11153 12.6277L13.385 16.4949C13.9318 16.8465 14.4006 16.6512 14.5568 15.948L16.7053 5.86992C16.9006 5.01055 16.3537 4.61992 15.7678 4.89336L3.22872 9.73711C2.40841 10.0496 2.40841 10.5574 3.07247 10.7527L6.31466 11.7684L13.7365 7.0418C14.0881 6.84648 14.4006 6.92461 14.1662 7.19805" fill="#F6FBFE"/>
</g>
<defs>
<clipPath id="clip0_55_1761">
<rect width="20" height="20" fill="white" transform="translate(0.142822 0.166748)"/>
</clipPath>
</defs>
</svg>
